<svg xmlns="http://www.w3.org/2000/svg" width="500" height="500" viewBox="0 0 500 500"><g transform="translate(221,366)translate(30,15)rotate(0)translate(-30,-15)" opacity="1"><path transform="translate(6,0)rotate(0)" d="M9.34 6.09L15.59 22L13.30 22L13.30 22Q12.91 22 12.67 21.81L12.67 21.81L12.67 21.81Q12.42 21.61 12.31 21.33L12.31 21.33L11.12 18.08L4.53 18.08L3.34 21.33L3.34 21.33Q3.26 21.58 3.00 21.79L3.00 21.79L3.00 21.79Q2.74 22 2.36 22L2.36 22L0.07 22L6.31 6.09L9.34 6.09ZM7.23 10.73L5.29 15.99L10.36 15.99L8.43 10.70L8.43 10.70Q8.29 10.35 8.13 9.87L8.13 9.87L8.13 9.87Q7.97 9.39 7.82 8.83L7.82 8.83L7.82 8.83Q7.67 9.39 7.52 9.88L7.52 9.88L7.52 9.88Q7.37 10.36 7.23 10.73L7.23 10.73ZM24.59 6.09L24.59 19.56L30.95 19.56L30.95 22L21.63 22L21.63 6.09L24.59 6.09ZM40.36 6.09L40.36 19.56L46.73 19.56L46.73 22L37.40 22L37.40 6.09L40.36 6.09Z" fill="#10263e"/></g><g transform="translate(141,300)translate(109.5,33.5)rotate(0)translate(-109.5,-33.5)" opacity="1"><path transform="translate(6,0)rotate(0)" d="M1.32 51L1.32 46.87L4.98 46.16L4.98 21.51L1.32 20.81L1.32 16.66L28.66 16.66L28.66 26.07L23.38 26.07L23.07 21.96L11.86 21.96L11.86 31.42L23.89 31.42L23.89 36.73L11.86 36.73L11.86 46.16L15.54 46.87L15.54 51L1.32 51ZM34.82 21.51L31.14 20.81L31.14 16.66L45.36 16.66L45.36 20.81L41.68 21.51L41.68 46.16L45.36 46.87L45.36 51L31.14 51L31.14 46.87L34.82 46.16L34.82 21.51ZM47.60 16.66L78.22 16.66L78.22 25.81L72.93 25.81L72.65 21.96L66.33 21.96L66.33 46.16L70.01 46.87L70.01 51L55.76 51L55.76 46.87L59.44 46.16L59.44 21.96L53.14 21.96L52.86 25.81L47.60 25.81L47.60 16.66ZM111.88 16.66L115.56 16.66L115.56 20.81L111.88 21.51L111.88 51L105.01 51L91.14 27.88L91.00 27.91L91.00 46.16L94.68 46.87L94.68 51L80.46 51L80.46 46.87L84.12 46.16L84.12 21.51L80.46 20.81L80.46 16.66L84.12 16.66L91.00 16.66L104.87 39.77L105.01 39.75L105.01 21.51L101.33 20.81L101.33 16.66L111.88 16.66ZM139.95 30.60L139.95 35.90L128.32 35.90L128.32 45.72L139.41 45.72L139.71 41.61L144.95 41.61L144.95 51L117.78 51L117.78 46.87L121.43 46.16L121.43 21.51L117.78 20.81L117.78 16.66L121.43 16.66L144.90 16.66L144.90 26.07L139.62 26.07L139.31 21.96L128.32 21.96L128.32 30.60L139.95 30.60ZM174.72 20.59L174.72 27.62L169.55 27.62L168.66 22.91L168.66 22.91Q167.76 22.34 166.04 21.92L166.04 21.92L166.04 21.92Q164.32 21.49 162.38 21.49L162.38 21.49L162.38 21.49Q159.55 21.49 158.01 22.68L158.01 22.68L158.01 22.68Q156.46 23.87 156.46 25.76L156.46 25.76L156.46 25.76Q156.46 27.51 158.08 28.63L158.08 28.63L158.08 28.63Q159.69 29.75 163.65 31.00L163.65 31.00L163.65 31.00Q169.34 32.58 172.28 35.17L172.28 35.17L172.28 35.17Q175.21 37.77 175.21 41.99L175.21 41.99L175.21 41.99Q175.21 46.40 171.72 48.95L171.72 48.95L171.72 48.95Q168.23 51.50 162.52 51.50L162.52 51.50L162.52 51.50Q158.44 51.50 155.15 50.20L155.15 50.20L155.15 50.20Q151.86 48.90 149.67 46.61L149.67 46.61L149.67 39.44L155.00 39.44L155.73 44.32L155.73 44.32Q156.77 45.17 158.55 45.73L158.55 45.73L158.55 45.73Q160.33 46.28 162.52 46.28L162.52 46.28L162.52 46.28Q165.35 46.28 166.83 45.13L166.83 45.13L166.83 45.13Q168.30 43.97 168.30 42.04L168.30 42.04L168.30 42.04Q168.30 40.06 166.90 38.85L166.90 38.85L166.90 38.85Q165.49 37.65 161.98 36.59L161.98 36.59L161.98 36.59Q155.87 34.82 152.73 32.39L152.73 32.39L152.73 32.39Q149.60 29.96 149.60 25.74L149.60 25.74L149.60 25.74Q149.60 21.56 153.13 18.91L153.13 18.91L153.13 18.91Q156.67 16.25 162.03 16.18L162.03 16.18L162.03 16.18Q165.99 16.18 169.25 17.39L169.25 17.39L169.25 17.39Q172.50 18.59 174.72 20.59L174.72 20.59ZM204.01 20.59L204.01 27.62L198.85 27.62L197.95 22.91L197.95 22.91Q197.06 22.34 195.33 21.92L195.33 21.92L195.33 21.92Q193.61 21.49 191.68 21.49L191.68 21.49L191.68 21.49Q188.85 21.49 187.30 22.68L187.30 22.68L187.30 22.68Q185.76 23.87 185.76 25.76L185.76 25.76L185.76 25.76Q185.76 27.51 187.37 28.63L187.37 28.63L187.37 28.63Q188.99 29.75 192.95 31.00L192.95 31.00L192.95 31.00Q198.64 32.58 201.57 35.17L201.57 35.17L201.57 35.17Q204.51 37.77 204.51 41.99L204.51 41.99L204.51 41.99Q204.51 46.40 201.02 48.95L201.02 48.95L201.02 48.95Q197.53 51.50 191.82 51.50L191.82 51.50L191.82 51.50Q187.74 51.50 184.45 50.20L184.45 50.20L184.45 50.20Q181.16 48.90 178.96 46.61L178.96 46.61L178.96 39.44L184.29 39.44L185.03 44.32L185.03 44.32Q186.06 45.17 187.84 45.73L187.84 45.73L187.84 45.73Q189.63 46.28 191.82 46.28L191.82 46.28L191.82 46.28Q194.65 46.28 196.12 45.13L196.12 45.13L196.12 45.13Q197.60 43.97 197.60 42.04L197.60 42.04L197.60 42.04Q197.60 40.06 196.19 38.85L196.19 38.85L196.19 38.85Q194.79 37.65 191.28 36.59L191.28 36.59L191.28 36.59Q185.17 34.82 182.03 32.39L182.03 32.39L182.03 32.39Q178.89 29.96 178.89 25.74L178.89 25.74L178.89 25.74Q178.89 21.56 182.43 18.91L182.43 18.91L182.43 18.91Q185.97 16.25 191.32 16.18L191.32 16.18L191.32 16.18Q195.29 16.18 198.54 17.39L198.54 17.39L198.54 17.39Q201.80 18.59 204.01 20.59L204.01 20.59Z" fill="#10263e"/></g><g transform="translate(155,87)translate(95.5,100.5)rotate(0)translate(-95.5,-100.5) scale(0.33592281162117055,0.33592281162117055)" opacity="1"><defs class="defs"/><path fill="#10263E" d="M470.839,241.434c0,0,45.42,32.138,69.059,110.492c0,0-27.357,25.498-84.729,43.559&#10;&#9;c-57.371,18.063-93.758,36.653-159.895,90.041c-65.87,53.387-97.742,69.058-169.19,82.338C54.372,581.142,3.642,568.66,3.642,568.66&#10;&#9;s-11.155-25.232,5.578-43.294c0,0,73.838-13.813,109.695-48.34c21.514-20.719,66.401-117.397,85.259-143.16&#10;&#9;c18.858-25.765,26.029-30.812,51.262-27.357c25.232,3.452,68.261,34.263,115.804,18.857&#10;&#9;C453.044,299.336,429.937,228.419,470.839,241.434z M517.32,532.536l-207.967,11.156c15.141-12.483,1.328-19.922,7.701-23.905&#10;&#9;c7.439-4.515,22.047-13.015,30.813-15.67c9.029-2.656,17.795,5.843,32.137,7.702c14.344,1.858,56.574-18.593,117.93-48.871&#10;&#9;c61.355-30.279,70.65-52.855,70.65-52.855c-14.344-39.044-28.154-58.433-28.154-58.433s-27.355,25.498-84.729,43.559&#10;&#9;c-57.369,18.063-93.758,36.653-159.895,90.04c-65.87,53.387-97.741,69.059-169.189,82.338&#10;&#9;c-71.713,13.28-122.443,0.797-122.443,0.797c20.983,21.515,56.308,30.545,95.883,31.342l-1.594,0.53l4.25-0.266&#10;&#9;c20.717,0.266,42.497-1.859,64.276-5.313l394.954-33.199l-203.984-3.453L517.32,532.536z M407.095,207.703&#10;&#9;c0,0,34.262-9.031,66.932-35.06c0,0-8.764,67.729-73.57,88.712c0,0,16.73,3.719,33.996-0.797c0,0-7.17,20.452-28.154,32.935&#10;&#9;c-20.982,12.483-32.137,7.171-32.137,7.171s7.17-62.151-40.373-52.855c10.625,1.328,22.842,6.375,26.295,17.53&#10;&#9;c14.078,43.824-54.449,77.29-85.259,23.904c-31.076-53.918,24.171-116.866,102.259-163.081C455.701,79.947,461.544,0,461.544,0&#10;&#9;s42.762,62.683,10.092,129.083C444.81,183.798,407.095,207.703,407.095,207.703z" class="color c1"/><path fill="#E91B20" d="M276.683,312.616c2.922-31.341-37.186-53.387-37.186-53.387l-38.512,79.948l0,0&#10;&#9;c-17.53,27.091-50.465,94.556-71.979,125.631c7.968,4.25,19.655,6.374,36.388,0.267c27.092-9.563,67.198-72.245,92.165-115.805l0,0&#10;&#9;c8.5-14.076,14.077-23.639,16.999-30.545c1.063-2.125,2.125-4.248,3.188-5.843C277.214,312.616,276.949,312.616,276.683,312.616z&#10;&#9; M139.632,524.834c-10.89,3.188-22.842,6.641-36.122,10.358c-67.198,18.062-94.555-9.827-94.555-9.827&#10;&#9;c-15.936,11.154-5.578,43.294-5.578,43.294s50.996,12.482,122.443-0.797c2.391-0.531,4.781-0.797,7.171-1.328&#10;&#9;c0.797,0,1.328-0.267,1.859-0.267c1.594-0.266,3.453-0.797,5.046-1.063c0.797-0.267,1.328-0.267,2.125-0.531&#10;&#9;c1.594-0.266,3.187-0.797,4.781-1.063c0.531-0.267,1.328-0.267,1.859-0.531c1.593-0.267,3.187-0.797,4.781-1.063&#10;&#9;c0.531,0,1.063-0.266,1.594-0.266c1.859-0.531,3.453-0.797,5.312-1.328c0.266,0,0.531,0,0.797-0.266&#10;&#9;c23.373-6.108,42.762-13.28,62.417-24.17C203.111,509.163,178.676,513.679,139.632,524.834z M506.697,281.275&#10;&#9;c-12.482,8.5-30.277,22.045-47.809,39.309c-25.232,24.701-50.465,57.637-60.293,96.68c10.891-5.312,22.045-9.826,33.998-14.076&#10;&#9;c0.266,0,0.266-0.266,0.531-0.266c2.391-0.797,4.516-1.594,6.904-2.391h0.268c2.123-0.797,4.248-1.328,6.373-2.125&#10;&#9;c0.531-0.266,1.328-0.531,1.859-0.531c2.125-0.797,4.516-1.328,6.904-2.125c57.371-18.061,84.73-43.559,84.73-43.559&#10;&#9;C530.867,321.912,518.382,298.539,506.697,281.275z" class="color c2"/><path fill="#FFFFFF" d="M458.888,320.584c-47.809,35.326-122.709,98.273-193.36,142.63c-42.497,26.562-87.384,48.871-125.896,61.886&#10;&#9;c39.044-11.154,63.214-15.671,84.197,11.155c21.514-11.687,43.293-27.623,71.714-50.465c41.965-33.997,71.979-53.652,103.055-68.261&#10;&#9;C408.423,378.221,433.656,345.285,458.888,320.584z M219.313,373.971c3.984,2.125,9.031,0.531,11.156-3.453l0,0&#10;&#9;c2.125-3.983,0.531-9.029-3.453-10.89l-27.623-14.343c-3.984-2.125-9.031-0.531-11.156,3.453l0,0&#10;&#9;c-2.125,3.984-0.531,9.031,3.453,10.89L219.313,373.971z M200.189,402.922c3.719,1.859,8.5,0.266,10.625-3.719l0,0&#10;&#9;c2.125-3.984,0.797-8.766-2.922-10.624l-25.764-13.015c-3.718-1.859-8.499-0.267-10.624,3.719l0,0&#10;&#9;c-2.125,3.984-0.797,8.765,2.922,10.624L200.189,402.922z M178.41,430.811c3.453,1.594,7.703-0.266,10.093-4.25l0,0&#10;&#9;c2.125-3.983,1.328-8.766-2.125-10.358l-22.842-11.687c-3.453-1.594-7.702,0.267-10.093,4.25l0,0&#10;&#9;c-2.125,3.983-1.328,8.764,2.125,10.357L178.41,430.811z M238.968,343.16c3.984,2.125,9.031,0.531,11.155-3.452l0,0&#10;&#9;c2.125-3.983,0.531-9.03-3.453-10.89l-27.889-14.077c-3.984-2.125-9.03-0.531-11.155,3.452l0,0&#10;&#9;c-2.125,3.983-0.531,9.031,3.453,10.891L238.968,343.16z" class="color c3"/></g></svg>